#define square_b_width 4
#define square_b_height 14
static unsigned char square_b_bits[] = {
   0x0f, 0x01, 0x01, 0x01, 0x00, 0x00, 0x00, 0x00, 0x00, 0x00, 0x00, 0x00,
   0x00, 0x00 };
