#define squaref_b_width 4
#define squaref_b_height 14
static unsigned char squaref_b_bits[] = {
   0x0f, 0x07, 0x03, 0x01, 0x00, 0x00, 0x00, 0x00, 0x00, 0x00, 0x00, 0x00,
   0x00, 0x00 };
