#define dwindle_width 14
#define dwindle_height 14
static unsigned char dwindle_bits[] = {
   0x00, 0x00, 0x00, 0x00, 0x00, 0x00, 0xef, 0x01, 0xef, 0x01, 0xef, 0x01,
   0xef, 0x01, 0xef, 0x01, 0x0f, 0x00, 0xaf, 0x01, 0x2f, 0x00, 0xaf, 0x01,
   0x00, 0x00, 0x00, 0x00 };
