#define fairv_width 14
#define fairv_height 14
static unsigned char fairv_bits[] = {
   0x00, 0x00, 0x00, 0x00, 0x00, 0x00, 0xbf, 0x01, 0xbf, 0x01, 0x80, 0x01,
   0xbf, 0x01, 0x3f, 0x00, 0xbf, 0x01, 0x80, 0x01, 0xbf, 0x01, 0xbf, 0x01,
   0x00, 0x00, 0x00, 0x00 };
