#define fairh_width 14
#define fairh_height 14
static unsigned char fairh_bits[] = {
   0x00, 0x00, 0x00, 0x00, 0x00, 0x00, 0xbb, 0x01, 0xbb, 0x01, 0xbb, 0x01,
   0xbb, 0x01, 0xbb, 0x01, 0xbb, 0x01, 0x00, 0x00, 0xef, 0x01, 0xef, 0x01,
   0x00, 0x00, 0x00, 0x00 };
