#define floating_width 14
#define floating_height 14
static unsigned char floating_bits[] = {
   0x00, 0x00, 0x00, 0x00, 0x00, 0x00, 0xfc, 0x01, 0xfc, 0x01, 0xfc, 0x01,
   0xfc, 0x01, 0xe0, 0x01, 0xef, 0x01, 0xef, 0x01, 0x0f, 0x00, 0x0f, 0x00,
   0x00, 0x00, 0x00, 0x00 };
