#define fullscreen_width 14
#define fullscreen_height 14
static unsigned char fullscreen_bits[] = {
   0x00, 0x00, 0x00, 0x00, 0x00, 0x00, 0xff, 0x01, 0x83, 0x01, 0xfb, 0x01,
   0xfb, 0x01, 0x83, 0x01, 0xfb, 0x01, 0xfb, 0x01, 0xfb, 0x01, 0xff, 0x01,
   0x00, 0x00, 0x00, 0x00 };
