#define magnifier_width 14
#define magnifier_height 14
static unsigned char magnifier_bits[] = {
   0x00, 0x00, 0x00, 0x00, 0x00, 0x00, 0xff, 0x01, 0xff, 0x01, 0x01, 0x01,
   0x7d, 0x01, 0x7d, 0x01, 0x7d, 0x01, 0x01, 0x01, 0xff, 0x01, 0xff, 0x01,
   0x00, 0x00, 0x00, 0x00 };
