#define max_width 14
#define max_height 14
static unsigned char max_bits[] = {
   0x00, 0x00, 0x00, 0x00, 0x00, 0x00, 0xfe, 0x00, 0x7d, 0x01, 0xbb, 0x01,
   0xd7, 0x01, 0xef, 0x01, 0xd7, 0x01, 0xbb, 0x01, 0x7d, 0x01, 0xfe, 0x00,
   0x00, 0x00, 0x00, 0x00 };
