#define spiral_width 14
#define spiral_height 14
static unsigned char spiral_bits[] = {
   0x00, 0x00, 0x00, 0x00, 0x00, 0x00, 0xef, 0x01, 0xef, 0x01, 0xef, 0x01,
   0xef, 0x01, 0xef, 0x01, 0x0f, 0x00, 0x6f, 0x01, 0x0f, 0x01, 0x6f, 0x01,
   0x00, 0x00, 0x00, 0x00 };
