#define tilebottom_width 14
#define tilebottom_height 14
static unsigned char tilebottom_bits[] = {
   0x00, 0x00, 0x00, 0x00, 0x00, 0x00, 0xff, 0x01, 0xff, 0x01, 0xff, 0x01,
   0xff, 0x01, 0x00, 0x00, 0xbb, 0x01, 0xbb, 0x01, 0xbb, 0x01, 0xbb, 0x01,
   0x00, 0x00, 0x00, 0x00 };
