#define tileleft_width 14
#define tileleft_height 14
static unsigned char tileleft_bits[] = {
   0x00, 0x00, 0x00, 0x00, 0x00, 0x00, 0xef, 0x01, 0xef, 0x01, 0xe0, 0x01,
   0xef, 0x01, 0xef, 0x01, 0xef, 0x01, 0xe0, 0x01, 0xef, 0x01, 0xef, 0x01,
   0x00, 0x00, 0x00, 0x00 };
