#define tile_width 14
#define tile_height 14
static unsigned char tile_bits[] = {
   0x00, 0x00, 0x00, 0x00, 0x00, 0x00, 0xef, 0x01, 0xef, 0x01, 0x0f, 0x00,
   0xef, 0x01, 0xef, 0x01, 0xef, 0x01, 0x0f, 0x00, 0xef, 0x01, 0xef, 0x01,
   0x00, 0x00, 0x00, 0x00 };
