#define bat_width 12
#define bat_height 12
static unsigned char bat_bits[] = {
   0x00, 0x00, 0x00, 0x00, 0x60, 0x00, 0xf8, 0x01, 0x08, 0x01, 0x68, 0x01,
   0x08, 0x01, 0x68, 0x01, 0x08, 0x01, 0xf8, 0x01, 0x00, 0x00, 0x00, 0x00 };
