#define cpuinfo_width 12
#define cpuinfo_height 12
static unsigned char cpuinfo_bits[] = {
   0x00, 0x00, 0x00, 0x00, 0x68, 0x01, 0x04, 0x02, 0x60, 0x00, 0x94, 0x02,
   0x94, 0x02, 0x60, 0x00, 0x04, 0x02, 0x68, 0x01, 0x00, 0x00, 0x00, 0x00 };
