#define cpuinfow_width 12
#define cpuinfow_height 12
static unsigned char cpuinfow_bits[] = {
   0x00, 0x00, 0x00, 0x00, 0x6c, 0x03, 0x04, 0x02, 0xf0, 0x00, 0xf4, 0x02,
   0xf4, 0x02, 0xf0, 0x00, 0x04, 0x02, 0x6c, 0x03, 0x00, 0x00, 0x00, 0x00 };
