#define downw_width 12
#define downw_height 12
static unsigned char downw_bits[] = {
   0x00, 0x00, 0x00, 0x00, 0x60, 0x00, 0x60, 0x00, 0x60, 0x00, 0x60, 0x00,
   0x60, 0x00, 0xf8, 0x01, 0xf0, 0x00, 0x60, 0x00, 0x00, 0x00, 0x00, 0x00 };
