#define down_width 12
#define down_height 12
static unsigned char down_bits[] = {
   0x00, 0x00, 0x00, 0x00, 0x60, 0x00, 0x00, 0x00, 0x60, 0x00, 0x00, 0x00,
   0x60, 0x00, 0x08, 0x01, 0x90, 0x00, 0x60, 0x00, 0x00, 0x00, 0x00, 0x00 };
