#define time_width 12
#define time_height 12
static unsigned char time_bits[] = {
   0x00, 0x00, 0x00, 0x00, 0xf0, 0x00, 0x78, 0x01, 0xbc, 0x03, 0xdc, 0x03,
   0x1c, 0x02, 0xfc, 0x03, 0xf8, 0x01, 0xf0, 0x00, 0x00, 0x00, 0x00, 0x00 };
