#define up_width 12
#define up_height 12
static unsigned char up_bits[] = {
   0x00, 0x00, 0x00, 0x00, 0x60, 0x00, 0x90, 0x00, 0x08, 0x01, 0x60, 0x00,
   0x00, 0x00, 0x60, 0x00, 0x00, 0x00, 0x60, 0x00, 0x00, 0x00, 0x00, 0x00 };
