#define upw_width 12
#define upw_height 12
static unsigned char upw_bits[] = {
   0x00, 0x00, 0x00, 0x00, 0x60, 0x00, 0xf0, 0x00, 0xf8, 0x01, 0x60, 0x00,
   0x60, 0x00, 0x60, 0x00, 0x60, 0x00, 0x60, 0x00, 0x00, 0x00, 0x00, 0x00 };
