#define vol_width 12
#define vol_height 12
static unsigned char vol_bits[] = {
   0x00, 0x00, 0x00, 0x00, 0x20, 0x00, 0x30, 0x01, 0x28, 0x02, 0xa4, 0x02,
   0xa4, 0x02, 0x28, 0x02, 0x30, 0x01, 0x20, 0x00, 0x00, 0x00, 0x00, 0x00 };
