#define volw_width 12
#define volw_height 12
static unsigned char volw_bits[] = {
   0x00, 0x00, 0x00, 0x00, 0x10, 0x00, 0x18, 0x01, 0x9c, 0x02, 0x9f, 0x02,
   0x9f, 0x02, 0x9c, 0x02, 0x18, 0x01, 0x10, 0x00, 0x00, 0x00, 0x00, 0x00 };
