#define wifi_width 12
#define wifi_height 12
static unsigned char wifi_bits[] = {
   0x00, 0x00, 0x00, 0x00, 0x00, 0x01, 0x40, 0x02, 0x90, 0x02, 0xa4, 0x02,
   0xa4, 0x02, 0x90, 0x02, 0x40, 0x02, 0x00, 0x01, 0x00, 0x00, 0x00, 0x00 };
