#define close_normal_width 16
#define close_normal_height 16
static unsigned char close_normal_bits[] = {
   0x00, 0x00, 0xff, 0x7f, 0x01, 0x40, 0x01, 0x40, 0x19, 0x4c, 0x39, 0x4e,
   0x71, 0x47, 0xe1, 0x43, 0xc1, 0x41, 0xe1, 0x43, 0x71, 0x47, 0x39, 0x4e,
   0x19, 0x4c, 0x01, 0x40, 0x01, 0x40, 0xff, 0x7f };
