#define floating_focus_inactive_width 16
#define floating_focus_inactive_height 16
static unsigned char floating_focus_inactive_bits[] = {
   0x00, 0x00, 0xff, 0x7f, 0x01, 0x40, 0x01, 0x40, 0xc1, 0x41, 0xc1, 0x41,
   0xc1, 0x41, 0xf9, 0x4f, 0xf9, 0x4f, 0xf9, 0x4f, 0xc1, 0x41, 0xc1, 0x41,
   0xc1, 0x41, 0x01, 0x40, 0x01, 0x40, 0xff, 0x7f };
