#define maximized_normal_active_width 16
#define maximized_normal_active_height 16
static unsigned char maximized_normal_active_bits[] = {
   0x00, 0x00, 0xff, 0x7f, 0x01, 0x40, 0x01, 0x40, 0xf9, 0x4f, 0xf9, 0x4f,
   0xf9, 0x4f, 0x01, 0x4e, 0x01, 0x4e, 0x01, 0x4e, 0x01, 0x4e, 0x01, 0x4e,
   0x01, 0x4e, 0x01, 0x40, 0x01, 0x40, 0xff, 0x7f };
