#define sticky_normal_inactive_width 16
#define sticky_normal_inactive_height 16
static unsigned char sticky_normal_inactive_bits[] = {
   0x00, 0x00, 0xff, 0x7f, 0x01, 0x40, 0x01, 0x40, 0xf9, 0x4f, 0xf9, 0x4f,
   0xf9, 0x4f, 0x39, 0x4e, 0x39, 0x4e, 0x39, 0x4e, 0xf9, 0x4f, 0xf9, 0x4f,
   0xf9, 0x4f, 0x01, 0x40, 0x01, 0x40, 0xff, 0x7f };
